<?xml version="1.0" encoding="UTF-8"?><svg id="Lag_1" xmlns="http://www.w3.org/2000/svg" width="170" height="255" viewBox="0 0 170 255"><defs><style>.cls-1{fill:#000;stroke-width:0px;}</style></defs><path class="cls-1" d="M1.58,133.05c9.23-11.23,17.2-23.46,23.73-36.45s11.63-26.68,15.16-40.77c1.99-7.95,3.47-16.01,4.45-24.14h-1.5c-2.15,30.02-4.96,59.99-8.43,89.89s-7.62,59.91-12.42,89.72c-2.32,14.39-4.06,29.98-12.9,42.1h1.3c-9.23-12.76-9.54-29.35-7.55-44.37,2.23-16.87,6.83-33.55,13.04-49.38,3.57-9.11,7.77-17.97,12.51-26.53h-1.3c4.18,6.67,8.35,13.35,12.53,20.02.19.3.51.41.85.34,6.62-1.31,9.04-8.68,11.73-13.97,1.48-2.93,3.78-5.28,6.81-6.62,2.67-1.18,5.92-1.34,7.48,1.55.34.62,1.15.38,1.37-.18,1.52-3.76,3.04-7.52,4.56-11.28l-.92.52c5.18,2,10.03,4.78,14.36,8.25.36.29.92.31,1.18-.15,3.71-6.72,8.05-13.08,12.98-18.97l-1.25-.33c1.3,7.47,1.22,15.12-.24,22.57l1.47.2c-.81-17.15-1.61-34.31-2.42-51.46-.81-17.24-1.62-34.47-2.43-51.71-.45-9.67-.91-19.34-1.36-29.01-.05-.97-1.42-.96-1.5,0-2.12,26.55-3.92,53.14-5.39,79.73s-2.62,53.22-3.44,79.84c-.46,14.9-.82,29.81-1.07,44.72h1.5c-2.46-26.89-3.06-53.95-1.78-80.92s4.44-54.04,9.47-80.67c2.8-14.85,6.19-29.58,10.13-44.17h-1.45c8.02,28.89,9.85,59.46,5.33,89.1-1.28,8.37-3.06,16.66-5.33,24.82l1.37-.18c-1.56-3.48.92-7.79,4.59-8.45l-.73-.19c7.12,8.49,11.84,18.8,13.67,29.72.07.41.56.6.92.52,16.16-3.55,32.32-7.1,48.49-10.65.94-.21.54-1.65-.4-1.45-16.16,3.55-32.32,7.1-48.49,10.65l.92.52c-1.87-11.19-6.76-21.7-14.05-30.38-.18-.21-.48-.24-.73-.19-4.71.85-7.41,6.37-5.48,10.66.27.61,1.21.4,1.37-.18,8.06-29.02,9.87-59.66,5.39-89.43-1.28-8.53-3.09-16.98-5.4-25.29-.2-.71-1.25-.72-1.45,0-7.07,26.13-12.31,52.75-15.7,79.61s-4.91,53.81-4.56,80.81c.2,15.27,1,30.53,2.39,45.73.09.95,1.48.98,1.5,0,.46-26.64,1.24-53.27,2.35-79.88,1.11-26.62,2.54-53.22,4.3-79.8.98-14.88,2.07-29.75,3.26-44.61h-1.5c.81,17.15,1.61,34.31,2.42,51.46s1.62,34.47,2.43,51.71c.45,9.67.91,19.34,1.36,29.01.04.8,1.3,1.07,1.47.2,1.51-7.72,1.59-15.61.24-23.36-.09-.54-.91-.75-1.25-.33-5.01,5.99-9.44,12.43-13.21,19.27l1.18-.15c-4.55-3.64-9.58-6.54-15.02-8.64-.41-.16-.78.18-.92.52-1.52,3.76-3.04,7.52-4.56,11.28l1.37-.18c-2.5-4.63-8.27-3.26-11.84-.77-2.19,1.52-3.84,3.48-5.04,5.84-1.27,2.51-2.37,5.12-3.82,7.53-1.64,2.72-3.77,5.11-7.01,5.75l.85.34c-4.18-6.67-8.35-13.35-12.53-20.02-.29-.46-1.01-.51-1.3,0-8.55,15.41-15.28,31.83-19.98,48.82-2.33,8.41-4.2,16.98-5.47,25.62-1.13,7.71-1.71,15.56-.97,23.34.82,8.57,3.33,16.99,8.41,24.02.35.48.95.48,1.3,0,7.74-10.62,10.01-23.87,12.09-36.55,2.45-14.93,4.73-29.89,6.85-44.87,4.22-29.87,7.79-59.82,10.7-89.85,1.65-17.05,3.09-34.11,4.31-51.2.07-.98-1.39-.94-1.5,0-1.72,14.22-5.04,28.24-9.84,41.74-4.82,13.57-11.14,26.6-18.81,38.79-4.33,6.88-9.09,13.49-14.25,19.77-.61.74.45,1.81,1.06,1.06h0Z"/></svg>