<?xml version="1.0" encoding="UTF-8"?><svg id="Lag_1" xmlns="http://www.w3.org/2000/svg" width="195" height="335" viewBox="0 0 195 335"><defs><style>.cls-1{fill:#000;stroke-width:0px;}</style></defs><path class="cls-1" d="M2.6,200.63c9.65-18.36,17.42-37.69,23.16-57.62s9.47-40.44,11.1-61.11c.92-11.69,1.16-23.43.72-35.15-.04-.96-1.49-.97-1.5,0-.56,37.52-1.14,75.05-3.12,112.53-1.98,37.5-5.37,74.97-11.59,112.02-3.5,20.82-7.9,41.48-13.39,61.87l1.47.2c.43-26.8,2.77-53.56,7.03-80.01,4.23-26.22,10.32-52.13,18.22-77.49,4.46-14.31,9.5-28.43,15.09-42.33l-1.47-.2c-2.83,23.79-2.44,47.87,1.11,71.56.11.76,1.26.66,1.45,0,1.13-4.08,2.58-9.37,6.74-11.38,3.12-1.51,9.25.56,8.11,4.82-.25.95,1.12,1.29,1.45.4,2.25-6.18,4.51-12.36,6.76-18.53l-1.47-.2c-.84,7.13.11,14.32,2.77,20.99.3.74,1.47.71,1.47-.2.04-25.91.09-51.83.13-77.74.04-25.91.09-51.83.13-77.74.02-14.56.05-29.11.07-43.67h-1.5c-.02,28.03-.04,56.06-.06,84.08-.02,27.92-.04,55.84-.05,83.75-.01,15.78-.02,31.56-.03,47.34,0,.97,1.48.97,1.5,0,.48-24.11,1.9-48.21,4.28-72.21,1.2-12.04,2.63-24.06,4.3-36.04,1.55-11.05,3-22.22,5.39-33.12,2.19-10,5.88-20.48,14.54-26.67l-1.1-.45c8.22,21.66,8.84,45.9,2,68.01-1.96,6.34-4.54,12.46-7.69,18.29h1.3c-1.55-3.66.35-8,3.91-9.59l-1.03-.27c8.18,15.71,3.1,36.84-11.38,47.07-.35.25-.56.85-.15,1.18,11.78,9.54,27.29,4.1,38.66-3.29,6.54-4.25,12-9.57,17.68-14.85s12.27-10.85,19.46-14.71c7.91-4.25,17.01-6.29,25.56-2.66.88.37,1.64-.92.76-1.3-14.57-6.2-29.16,2.61-40.21,11.76-6.08,5.03-11.41,10.88-17.57,15.8s-12.94,9.15-20.43,11.45-16.26,2.06-22.84-3.27l-.15,1.18c15.16-10.72,20.5-32.64,11.92-49.13-.2-.39-.67-.43-1.03-.27-4.39,1.95-6.3,7.29-4.45,11.64.22.53,1.05.45,1.3,0,11.17-20.68,15.01-44.97,11.1-68.12-1.12-6.6-2.88-13.08-5.26-19.33-.16-.41-.67-.75-1.1-.45-7.37,5.27-11.41,13.49-13.84,22.01-2.98,10.46-4.27,21.48-5.85,32.22-3.58,24.36-6.19,48.86-7.8,73.43-.91,13.88-1.49,27.77-1.77,41.68h1.5c.02-28.03.04-56.06.06-84.08.02-27.92.04-55.84.05-83.75.01-15.78.02-31.56.03-47.34,0-.97-1.5-.97-1.5,0-.04,25.91-.09,51.83-.13,77.74-.04,25.91-.09,51.83-.13,77.74-.02,14.56-.05,29.11-.07,43.67l1.47-.2c-2.62-6.56-3.54-13.58-2.71-20.59.11-.89-1.2-.94-1.47-.2-2.25,6.18-4.51,12.36-6.76,18.53l1.45.4c1.26-4.74-4.24-7.82-8.35-7.15-5.85.96-8.05,8.05-9.4,12.92h1.45c-3.53-23.55-3.87-47.52-1.06-71.17.11-.91-1.19-.91-1.47-.2-9.99,24.83-18.19,50.37-24.52,76.37-6.3,25.87-10.75,52.18-13.33,78.68-1.46,15.02-2.3,30.09-2.54,45.17-.01.85,1.25,1.02,1.47.2,9.74-36.15,15.99-73.16,20.02-110.36,4.06-37.49,5.89-75.19,6.91-112.88.58-21.19.9-42.38,1.22-63.57h-1.5c.77,20.69-.58,41.45-4.02,61.87-3.41,20.19-8.83,40.04-16.18,59.15-4.22,10.98-9.1,21.7-14.57,32.11-.45.85.85,1.61,1.3.76h0Z"/></svg>