<?xml version="1.0" encoding="UTF-8"?><svg id="Lag_1" xmlns="http://www.w3.org/2000/svg" width="301.81" height="302" viewBox="0 0 301.81 302"><defs><style>.cls-1{fill:#292929;}.cls-1,.cls-2{stroke-width:0px;}.cls-2{fill:#fff;}</style></defs><g id="facebook"><rect class="cls-1" width="301.81" height="301.81" rx="64.05" ry="64.05"/><path class="cls-2" d="M129.95,302v-106.65h-39.01v-44.1h39.01v-35.26c0-7,.89-13.98,2.66-20.75h0c1.02-3.9,2.6-7.63,4.69-11.06h0c3.47-5.68,7.74-10.83,12.68-15.26h0c1.31-1.18,2.79-2.15,4.39-2.88l4.26-1.95c3.23-1.48,6.59-2.67,10.04-3.54l3.2-.81,2.14-.36c2.76-.46,5.55-.7,8.34-.7h22.68l15.04,1.06-1.05,39.14h-17.98c-2.68,0-5.35.19-8.01.57l-3.35.48h0c-4.12,2.08-7.63,5.21-10.19,9.08l-.29.44h0c-2.06,3.46-3.14,7.42-3.14,11.46v9.7l.25,20.63h43.76l-8.38,42.84h-35.63l.03,107.9h-46.14Z"/></g></svg>