<?xml version="1.0" encoding="UTF-8"?><svg id="Lag_1" xmlns="http://www.w3.org/2000/svg" width="320" height="320" viewBox="0 0 320 320"><defs><style>.cls-1{stroke-width:11px;}.cls-1,.cls-2{fill:none;stroke:#000;stroke-miterlimit:10;}.cls-2{stroke-width:14px;}</style></defs><g id="Linkedin_normal"><rect class="cls-2" x="8.5" y="8.5" width="303" height="303" rx="60.99" ry="60.99"/><rect class="cls-1" x="70.5" y="129.5" width="38" height="123"/><rect class="cls-1" x="129.5" y="129.5" width="38" height="123"/><path class="cls-1" d="M169.39,146.5c3.25-3.89,13.06-14.61,29.26-18,5.05-1.06,18.12-3.8,31.15,4,6.36,3.81,10.8,8.99,13.9,14.13,4.55,7.56,6.84,16.4,6.93,25.36l.87,79.51h-34.64l-.28-61v-8h0c-.63-3.32-1.67-6.53-3.1-9.56h0c-1.07-2.28-2.49-4.36-4.19-6.16h0c-.8-.85-1.74-1.52-2.78-1.99h0c-3.32-1.51-6.9-2.29-10.51-2.29h-.52c-2.29,0-4.57.26-6.79.79h0c-3.38.8-6.55,2.4-9.26,4.7h0c-.4.34-.76.73-1.07,1.17l-.68.96c-1.13,1.59-2.16,3.25-3.09,4.98h0c-1.54,2.85-4.01,5.1-6.99,6.37l-.11.04,1.89-35Z"/><circle class="cls-1" cx="91" cy="91" r="22.5"/></g></svg>