<?xml version="1.0" encoding="UTF-8"?><svg id="Lag_1" xmlns="http://www.w3.org/2000/svg" width="2019" height="1156" xmlns:xlink="http://www.w3.org/1999/xlink" viewBox="0 0 2019 1156"><defs><style>.cls-1{fill:url(#Ikke-navngivet_forløb_27);stroke-width:0px;}</style><linearGradient id="Ikke-navngivet_forløb_27" x1="-77.3" y1="925.19" x2="2047" y2="925.19" gradientUnits="userSpaceOnUse"><stop offset="0" stop-color="#4f8bcd"/><stop offset="1" stop-color="#e65af7"/></linearGradient></defs><g id="portræt4"><image width="1890" height="1417" transform="translate(-7 -215) scale(1.05)" xlink:href="../../1semester/Portfolio1/img/portrait4.png"/><path class="cls-1" d="M-16.24,578c52.89,34.83,92.9,82.85,138.08,125.62,45.18,42.76,99.55,82.13,164.26,91.15,63.51,8.86,133.19-11.96,190.23,14.75,35.49,16.62,58.33,48.45,82.74,77.03,49.41,57.84,123.43,110.53,203.34,98.92,62.47-9.08,109.6-54.68,166.09-80.41,66.25-30.17,147.7-31.62,215.22-3.83,59.58,24.52,108.09,70.05,171.33,85.39,64.02,15.52,132.07-2.72,192.57-27.19,88.85-35.93,172.2-85.96,267.46-104.1,95.26-18.14,210.97,6.9,253.77,85.81,48.72,89.84-17.82,197.11-1.86,296.09-182.79,43.3-375.27,40.79-563.27,23.37-188-17.42-374.14-49.41-562.41-64.25-240.9-18.99-483.29-9.78-725.1-11.69-46.55-.37-93.93-1.27-138.19-14.29s-85.72-40.13-102.79-79.21c-10.57-24.19-11.12-50.86-11.53-76.86-2.16-136.68-4.11-275.15,32.26-407.84,4.03-14.71,20.49-33.04,32.85-22.78"/></g></svg>